<svg width="1942" height="858" viewBox="0 0 1942 858" fill="none" xmlns="http://www.w3.org/2000/svg">
<path d="M1939.17 805.95C1477.6 686.17 998.17 657.16 522.6 621.95C454.25 616.89 385.39 611.61 319.3 593.42C385.61 566.51 458.04 559.28 529.41 554.05C913.27 526.042 1299.14 548.077 1677.32 619.6C1170.49 507.25 649.12 480.5 130.6 455.06C93.5199 453.24 54.4197 450.79 23.4497 430.32C103.36 406.75 186.39 395.75 269.21 386.69C795.832 329.165 1327.94 346.335 1849.76 437.69C1784.86 402.63 1711.71 386.37 1639.36 371.97C1314.73 307.4 984.99 272.69 655.61 239.97C526.77 227.18 396.39 214.37 274.36 171.08C254.58 164.08 231.5 151.08 232.58 130.08C233.51 112 252.22 100.82 268.85 93.66C374.47 48.18 490.02 31.14 604.58 21.16C867.341 -1.69221 1131.97 10.3254 1391.58 56.9C1474.74 71.84 1558.35 90.6901 1633.48 129.35C1647.25 136.44 1662.8 148.44 1659.66 163.61C1656.26 180.02 1634.84 183.79 1618.08 183.96C1113.42 189.14 602.55 182.05 112.23 301.61C184.08 313.25 257.44 307.67 330.13 303.8C725.13 282.8 1126.79 314.38 1501.83 440.07C1607.6 475.51 1712.07 518.96 1801.83 585.16C1826.83 603.56 1852.94 635.45 1836.83 661.91C1829.45 674 1815.32 679.91 1801.91 684.54C1721.11 712.14 1634.53 716.54 1549.28 721.27C1109.74 745.87 671.64 787.87 234.98 847.27C448.68 795.99 669.34 782.27 888.69 768.66" stroke="#F9FF00" stroke-width="20" stroke-miterlimit="10"/>
</svg>
