<svg width="725" height="158" viewBox="0 0 725 158" fill="none" xmlns="http://www.w3.org/2000/svg">
<path d="M18.7799 99.3201C19.9799 127.04 39.27 141.32 64.58 141.32C87 141.32 101.46 131.43 101.46 115.04C101.46 101.3 92.0599 94.3101 72.5299 90.4501L42.3999 84.67C20.2199 80.57 4.54993 68.03 4.54993 44.67C4.54993 31.41 9.36989 20.8 19.2599 12.61C29.1399 4.17005 42.1599 0.0700684 58.7899 0.0700684C96.6399 0.0700684 118.79 20.56 119.06 54.55L100.06 55.55C99.3299 30.48 84.1499 16.2501 59.0599 16.2501C37.1299 16.2501 24.83 26.8601 24.83 43.4901C24.83 58.2001 34.9599 63.4901 52.3099 66.6401L79.7999 71.9401C107.52 77.0001 121.5 89.5401 121.5 113.64C121.5 127.64 115.96 138.47 105.11 146.19C94.26 153.91 80.76 157.76 64.61 157.76C46.05 157.76 30.6099 152.7 18.3199 142.81C6.02995 132.92 0 118.71 0 100.63L18.7799 99.3201Z" fill="black"/>
<path d="M172.32 154.77V20.25H117.12V2.89001H249.22V20.25H193.05V154.77H172.32Z" fill="black"/>
<path d="M274.32 143.68C262.51 134.28 256.48 118.61 256.48 96.68V2.89001H277.22V96.89C277.22 125.82 291.68 140.04 317.96 140.04C344.24 140.04 359.18 125.82 359.18 97.13V2.89001H379.67V96.67C379.67 118.61 373.643 134.277 361.59 143.67C349.59 153.07 335.07 157.67 317.96 157.67C300.85 157.67 286.32 153.08 274.32 143.68Z" fill="black"/>
<path d="M396.32 2.89001H451.32C475.19 2.89001 493.99 9.64001 507.98 23.14C522.2 36.64 529.19 55.21 529.19 78.83C529.19 102.45 522.19 121.02 507.98 134.52C493.98 148.02 475.19 154.77 451.32 154.77H396.32V2.89001ZM450.08 137.65C486.96 137.65 507.45 115.47 507.45 78.83C507.45 42.19 486.96 20.01 450.08 20.01H417.29V137.65H450.08Z" fill="black"/>
<path d="M561.65 2.89001V154.77H540.65V2.89001H561.65Z" fill="black"/>
<path d="M703.16 135.72C688.93 150.43 670.85 157.66 648.92 157.66C626.99 157.66 608.92 150.43 594.68 135.72C580.44 121.01 573.46 102.21 573.46 78.83C573.46 55.45 580.46 36.64 594.68 21.94C608.9 7.24 626.98 0 648.92 0C670.86 0 688.92 7.23 703.16 21.94C717.4 36.65 724.37 55.45 724.37 78.83C724.37 102.21 717.38 121.02 703.16 135.72ZM687.97 34.47C678.09 23.3833 665.073 17.84 648.92 17.84C632.76 17.84 619.51 23.38 609.62 34.47C599.73 45.56 594.92 60.27 594.92 78.83C594.92 97.39 599.74 112.1 609.62 123.19C619.5 134.28 632.76 139.82 648.92 139.82C665.08 139.82 678.09 134.28 687.97 123.19C697.85 112.1 702.67 97.39 702.67 78.83C702.67 60.27 697.85 45.56 687.97 34.47Z" fill="black"/>
</svg>
