<svg width="719" height="158" viewBox="0 0 719 158" fill="none" xmlns="http://www.w3.org/2000/svg">
<path d="M21.45 21.94C35.92 7.23 53.52 0 74.45 0C95.9 0 112.78 6.00001 124.83 18.32C137.13 30.62 143.88 46.32 145.32 65.81L125.07 66.81C124.35 52.81 119.53 41.25 110.85 31.81C102.17 22.37 90.12 17.81 74.45 17.81C59.02 17.81 46.24 23.35 36.36 34.44C26.48 45.29 21.41 60.24 21.41 78.8C21.41 97.36 26.48 112.31 36.36 123.4C46.24 134.25 59.02 139.79 74.45 139.79C90.12 139.79 102.17 135.21 110.85 125.79C119.53 116.37 124.35 104.79 125.07 90.79L145.32 91.79C143.88 111.31 137.13 126.98 124.83 139.28C112.83 151.57 95.9 157.6 74.45 157.6C53.45 157.6 35.88 150.37 21.45 135.66C7.23 120.96 0 102.15 0 78.77C0 55.39 7.23 36.64 21.45 21.94Z" fill="black"/>
<path d="M156.93 154.77V2.89001H177.93V67.98H265.2V2.89001H286.2V154.77H265.2V85.1H177.9V154.77H156.93Z" fill="black"/>
<path d="M325.91 2.89001V154.77H304.91V2.89001H325.91Z" fill="black"/>
<path d="M359.18 21.94C373.65 7.23 391.24 0 412.18 0C433.63 0 450.51 6.00001 462.56 18.32C474.85 30.62 481.56 46.32 483.05 65.81L462.8 66.81C462.08 52.81 457.26 41.25 448.58 31.81C439.9 22.37 427.85 17.81 412.18 17.81C396.75 17.81 383.97 23.35 374.09 34.44C364.2 45.29 359.14 60.24 359.14 78.8C359.14 97.36 364.2 112.31 374.09 123.4C383.97 134.25 396.75 139.79 412.18 139.79C427.85 139.79 439.9 135.21 448.58 125.79C457.26 116.37 462.08 104.79 462.8 90.79L483.05 91.79C481.6 111.31 474.85 126.98 462.56 139.28C450.56 151.57 433.63 157.6 412.18 157.6C391.18 157.6 373.61 150.37 359.18 135.66C344.96 120.96 337.73 102.15 337.73 78.77C337.73 55.39 344.96 36.64 359.18 21.94Z" fill="black"/>
<path d="M515.63 2.89001V137.41H600.24V154.77H494.66V2.89001H515.63Z" fill="black"/>
<path d="M718.6 154.77H610.37V2.89001H716.44V20.25H630.61V67.98H698.84V85.1H630.61V137.41H718.61L718.6 154.77Z" fill="black"/>
<path d="M593.12 6.34997C593.507 5.94871 593.974 5.63289 594.491 5.42279C595.007 5.21269 595.562 5.11297 596.12 5.13C596.63 5.09759 597.141 5.16955 597.623 5.34149C598.104 5.51343 598.546 5.78173 598.92 6.13C599.616 6.84079 600.023 7.78558 600.06 8.77997H598.94C598.918 8.0546 598.634 7.36186 598.14 6.83002C597.881 6.56563 597.568 6.35933 597.224 6.22485C596.879 6.09037 596.509 6.03076 596.14 6.04999C595.738 6.03872 595.339 6.11622 594.971 6.27698C594.603 6.43773 594.274 6.67779 594.01 6.97998C593.431 7.66884 593.134 8.55137 593.18 9.45001C593.135 10.3546 593.431 11.2431 594.01 11.94C594.279 12.2359 594.608 12.4703 594.975 12.6274C595.343 12.7844 595.74 12.8603 596.14 12.85C596.51 12.8718 596.88 12.8135 597.225 12.6788C597.57 12.5442 597.882 12.3365 598.14 12.07C598.631 11.5407 598.915 10.8519 598.94 10.13L600.06 10.18C600.02 11.1709 599.614 12.1117 598.92 12.82C598.547 13.1698 598.105 13.439 597.624 13.611C597.142 13.7831 596.63 13.8542 596.12 13.82C595.562 13.8358 595.006 13.7344 594.49 13.5226C593.973 13.3107 593.506 12.9931 593.12 12.59C592.353 11.7119 591.931 10.5857 591.931 9.41998C591.931 8.25429 592.353 7.12811 593.12 6.25V6.34997Z" fill="black"/>
<path d="M596.05 17.9C594.393 17.9 592.772 17.4086 591.394 16.4877C590.016 15.5669 588.942 14.2581 588.308 12.7269C587.674 11.1956 587.508 9.51071 587.831 7.88514C588.154 6.25958 588.952 4.7664 590.124 3.59443C591.296 2.42247 592.79 1.62438 594.415 1.30104C596.041 0.977694 597.726 1.14364 599.257 1.77791C600.788 2.41217 602.097 3.48625 603.018 4.86433C603.938 6.24242 604.43 7.86263 604.43 9.52003C604.427 11.7417 603.544 13.8717 601.973 15.4426C600.402 17.0136 598.272 17.8974 596.05 17.9ZM596.05 2.12001C594.584 2.11803 593.149 2.55118 591.929 3.36464C590.709 4.1781 589.758 5.3353 589.196 6.68971C588.634 8.04412 588.486 9.53483 588.772 10.9732C589.057 12.4115 589.763 13.7328 590.8 14.7697C591.837 15.8066 593.158 16.5125 594.597 16.7981C596.035 17.0837 597.526 16.9361 598.88 16.374C600.235 15.812 601.392 14.8606 602.205 13.6405C603.019 12.4204 603.452 10.9864 603.45 9.52003C603.447 7.55824 602.667 5.67755 601.28 4.29036C599.892 2.90316 598.012 2.12265 596.05 2.12001Z" fill="black"/>
</svg>
