<svg width="1037" height="787" viewBox="0 0 1037 787" fill="none" xmlns="http://www.w3.org/2000/svg">
<g clip-path="url(#clip0_23_24)">
<path d="M9.28027 720.36C100.387 494.473 198.084 271.393 302.37 51.12C287.69 291.62 294.72 501.12 276.43 720.12C360.77 508.41 479.96 288.65 581 84.38" stroke="black" stroke-width="20" stroke-miterlimit="10"/>
<path d="M962.69 61.36C927.69 48.53 887.9 53.36 853.79 68.36C819.68 83.36 790.57 107.94 764.52 134.61C699.74 200.94 652.06 283.28 624.52 371.67C611.18 414.45 599.08 461.91 599.44 506.99C599.78 549.3 591.44 591.8 597.37 634.44C600.56 657.34 607.37 681.09 624.29 696.88C633.29 705.33 644.72 710.94 656.53 714.65C701.18 728.65 751.08 715.76 789.99 689.75C828.9 663.74 858.36 625.92 884.22 586.9C966.8 462.27 1029.37 303.64 1026.61 152.12C1026.39 139.98 1025.61 127.68 1021.81 116.12C1012.17 87.28 985.15 68.43 959.81 51.67" stroke="black" stroke-width="20" stroke-miterlimit="10"/>
</g>
<defs>
<clipPath id="clip0_23_24">
<rect width="1036.68" height="786.19" fill="white"/>
</clipPath>
</defs>
</svg>
